<?xml version="1.0" encoding="UTF-8"?>
<svg xmlns="http://www.w3.org/2000/svg" xmlns:xlink="http://www.w3.org/1999/xlink" width="24pt" height="24pt" viewBox="0 0 24 24" version="1.1">
<g id="surface1">
<path style=" stroke:none;fill-rule:nonzero;fill:rgb(0%,0%,0%);fill-opacity:1;" d="M 24.003906 9.425781 C 24.003906 9.070312 23.734375 8.851562 23.195312 8.761719 L 15.953125 7.710938 L 12.707031 1.148438 C 12.527344 0.753906 12.289062 0.554688 12.003906 0.554688 C 11.714844 0.554688 11.476562 0.753906 11.296875 1.148438 L 8.050781 7.710938 L 0.808594 8.761719 C 0.269531 8.851562 0 9.070312 0 9.425781 C 0 9.628906 0.121094 9.859375 0.359375 10.121094 L 5.613281 15.226562 L 4.371094 22.4375 C 4.351562 22.574219 4.34375 22.667969 4.34375 22.726562 C 4.34375 22.929688 4.394531 23.101562 4.492188 23.238281 C 4.59375 23.378906 4.746094 23.449219 4.949219 23.449219 C 5.121094 23.449219 5.3125 23.390625 5.523438 23.277344 L 12 19.871094 L 18.480469 23.277344 C 18.679688 23.390625 18.875 23.449219 19.054688 23.449219 C 19.25 23.449219 19.394531 23.378906 19.496094 23.238281 C 19.597656 23.101562 19.648438 22.929688 19.648438 22.726562 C 19.648438 22.601562 19.640625 22.507812 19.632812 22.4375 L 18.390625 15.226562 L 23.628906 10.121094 C 23.878906 9.871094 24.003906 9.636719 24.003906 9.425781 Z M 24.003906 9.425781 "/>
</g>
</svg>
